<svg width="102" height="60" viewBox="0 0 102 60" fill="none" xmlns="http://www.w3.org/2000/svg">
<mask id="mask0_17_667" style="mask-type:alpha" maskUnits="userSpaceOnUse" x="0" y="13" width="38" height="34">
<path d="M0 27.2591C0 25.9823 0.643362 24.7915 1.71125 24.0918L16.6481 14.3035C17.9086 13.4776 19.5388 13.4776 20.7992 14.3036L35.7361 24.0918C36.804 24.7915 37.4474 25.9823 37.4474 27.2591V38.9454C37.4474 40.7169 36.2192 42.2516 34.4908 42.64L19.5539 45.9966C19.0072 46.1195 18.4401 46.1195 17.8934 45.9966L2.95655 42.64C1.22815 42.2516 0 40.7169 0 38.9454V27.2591Z" fill="#361010"/>
</mask>
<g mask="url(#mask0_17_667)">
<path d="M0 27.2591C0 25.9823 0.643362 24.7915 1.71125 24.0918L16.6481 14.3035C17.9086 13.4776 19.5388 13.4776 20.7992 14.3036L35.7361 24.0918C36.804 24.7915 37.4474 25.9823 37.4474 27.2591V38.9454C37.4474 40.7169 36.2192 42.2516 34.4908 42.64L19.5539 45.9966C19.0072 46.1195 18.4401 46.1195 17.8934 45.9966L2.95655 42.64C1.22815 42.2516 0 40.7169 0 38.9454V27.2591Z" fill="white"/>
<path d="M-14.7598 7.17453H18.5875V56.8969H-14.7598V7.17453Z" fill="#D6CCCC"/>
</g>
<path d="M95.5167 41.2238C94.5554 41.2238 93.6562 41.154 92.819 41.0145C91.9973 40.8749 91.2841 40.6734 90.6795 40.4098V37.6424C91.3616 37.9214 92.0981 38.1462 92.8888 38.3168C93.6795 38.4873 94.4547 38.5726 95.2144 38.5726C96.2996 38.5726 97.0981 38.4718 97.6097 38.2703C98.1213 38.0687 98.3772 37.6113 98.3772 36.8982C98.3772 36.4486 98.2686 36.092 98.0516 35.8284C97.8345 35.5648 97.4547 35.3323 96.912 35.1307C96.3849 34.9137 95.633 34.6734 94.6562 34.4098C93.0903 33.9757 91.9895 33.433 91.3539 32.7819C90.7182 32.1307 90.4004 31.2315 90.4004 30.0842C90.4004 28.7043 90.9043 27.6423 91.912 26.8981C92.9198 26.1539 94.3849 25.7819 96.3074 25.7819C97.2066 25.7819 98.0438 25.8439 98.819 25.9679C99.5942 26.0919 100.222 26.2392 100.703 26.4098V29.1772C99.4314 28.6966 98.1058 28.4563 96.726 28.4563C95.7492 28.4563 94.9818 28.5648 94.4237 28.7819C93.8655 28.9834 93.5864 29.4175 93.5864 30.0842C93.5864 30.4718 93.6872 30.7819 93.8888 31.0144C94.0903 31.247 94.4314 31.4563 94.912 31.6423C95.4082 31.8284 96.0981 32.0377 96.9818 32.2702C98.2066 32.5958 99.1524 32.9834 99.819 33.433C100.486 33.8827 100.943 34.3943 101.191 34.9679C101.455 35.5416 101.586 36.185 101.586 36.8982C101.586 38.2005 101.09 39.247 100.098 40.0377C99.1058 40.8284 97.5787 41.2238 95.5167 41.2238Z" fill="white"/>
<path d="M85.0742 40.9911V26.0144H88.2138V40.9911H85.0742Z" fill="white"/>
<path d="M70.1094 40.9911V26.0144H73.2489V32.3632L79.0164 26.0144H82.621L77.2024 32.0841L82.9001 40.9911H79.5513L75.2489 34.0842L73.2489 36.2469V40.9911H70.1094Z" fill="white"/>
<path d="M60.6385 41.2238C55.7857 41.2238 53.3594 38.6734 53.3594 33.5726C53.3594 30.8284 53.9718 28.8439 55.1966 27.6191C56.4214 26.3943 58.2354 25.7819 60.6385 25.7819C63.0416 25.7819 64.8555 26.3943 66.0803 27.6191C67.3052 28.8439 67.9176 30.8284 67.9176 33.5726C67.9176 38.6734 65.4912 41.2238 60.6385 41.2238ZM60.6385 38.5493C62.0493 38.5493 63.0803 38.1462 63.7315 37.34C64.3982 36.5183 64.7315 35.2625 64.7315 33.5726C64.7315 31.6966 64.3982 30.3788 63.7315 29.6191C63.0803 28.8439 62.0493 28.4563 60.6385 28.4563C59.2276 28.4563 58.1888 28.8439 57.5222 29.6191C56.871 30.3788 56.5454 31.6966 56.5454 33.5726C56.5454 35.2625 56.871 36.5183 57.5222 37.34C58.1888 38.1462 59.2276 38.5493 60.6385 38.5493Z" fill="white"/>
<path d="M42.0371 40.9911V26.0144H45.1767V38.5725H52.5488V40.9911H42.0371Z" fill="white"/>
</svg>
