<svg width="60" height="60" viewBox="0 0 60 60" fill="none" xmlns="http://www.w3.org/2000/svg">
<g clip-path="url(#clip0_17_466)">
<mask id="mask0_17_466" style="mask-type:alpha" maskUnits="userSpaceOnUse" x="5" y="0" width="51" height="44">
<path d="M5 18.252C5 16.5354 5.86502 14.9344 7.30082 13.9935L27.3839 0.832914C29.0786 -0.277639 31.2705 -0.277638 32.9652 0.832916L53.0483 13.9935C54.4841 14.9344 55.3492 16.5354 55.3492 18.252V33.9646C55.3492 36.3464 53.6979 38.41 51.374 38.9322L31.2909 43.4453C30.5559 43.6105 29.7933 43.6105 29.0583 43.4453L8.97517 38.9322C6.65129 38.41 5 36.3465 5 33.9646V18.252Z" fill="#361010"/>
</mask>
<g mask="url(#mask0_17_466)">
<path d="M5 18.252C5 16.5354 5.86502 14.9344 7.30082 13.9935L27.3839 0.832914C29.0786 -0.277639 31.2705 -0.277638 32.9652 0.832916L53.0483 13.9935C54.4841 14.9344 55.3492 16.5354 55.3492 18.252V33.9646C55.3492 36.3464 53.6979 38.41 51.374 38.9322L31.2909 43.4453C30.5559 43.6105 29.7933 43.6105 29.0583 43.4453L8.97517 38.9322C6.65129 38.41 5 36.3465 5 33.9646V18.252Z" fill="white"/>
<path d="M-14.8457 -8.75195H29.9908V58.1013H-14.8457V-8.75195Z" fill="#D6CCCC"/>
</g>
<path d="M49.7677 60.0001C48.9732 60.0001 48.23 59.9425 47.5381 59.8271C46.8589 59.7118 46.2695 59.5452 45.7697 59.3274V57.0401C46.3335 57.2707 46.9422 57.4565 47.5957 57.5975C48.2492 57.7384 48.8899 57.8089 49.5178 57.8089C50.4148 57.8089 51.0747 57.7256 51.4976 57.559C51.9205 57.3925 52.1319 57.0144 52.1319 56.425C52.1319 56.0534 52.0422 55.7587 51.8628 55.5408C51.6834 55.323 51.3695 55.1308 50.921 54.9642C50.4853 54.7848 49.8638 54.5862 49.0565 54.3683C47.7623 54.0095 46.8525 53.5611 46.3271 53.0229C45.8018 52.4847 45.5391 51.7415 45.5391 50.7932C45.5391 49.6528 45.9555 48.775 46.7884 48.1599C47.6214 47.5448 48.8323 47.2373 50.4212 47.2373C51.1644 47.2373 51.8564 47.2886 52.4971 47.3911C53.1378 47.4936 53.6568 47.6153 54.054 47.7563V50.0436C53.0033 49.6464 51.9077 49.4477 50.7672 49.4477C49.9599 49.4477 49.3256 49.5374 48.8643 49.7168C48.403 49.8834 48.1724 50.2422 48.1724 50.7932C48.1724 51.1136 48.2556 51.3698 48.4222 51.5621C48.5888 51.7543 48.8707 51.9273 49.268 52.081C49.678 52.2348 50.2482 52.4078 50.9786 52.6C51.991 52.8691 52.7726 53.1894 53.3236 53.5611C53.8746 53.9327 54.2526 54.3555 54.4577 54.8296C54.6755 55.3038 54.7844 55.8356 54.7844 56.425C54.7844 57.5014 54.3744 58.3663 53.5543 59.0198C52.7342 59.6734 51.472 60.0001 49.7677 60.0001Z" fill="white"/>
<path d="M41.1367 59.8081V47.4297H43.7316V59.8081H41.1367Z" fill="white"/>
<path d="M28.7676 59.8081V47.4297H31.3624V52.6771L36.1293 47.4297H39.1085L34.63 52.4464L39.3392 59.8081H36.5714L33.0154 54.0994L31.3624 55.887V59.8081H28.7676Z" fill="white"/>
<path d="M20.94 60.0001C16.9292 60.0001 14.9238 57.8922 14.9238 53.6764C14.9238 51.4083 15.43 49.7681 16.4423 48.7558C17.4546 47.7435 18.9539 47.2373 20.94 47.2373C22.9262 47.2373 24.4255 47.7435 25.4378 48.7558C26.4501 49.7681 26.9562 51.4083 26.9562 53.6764C26.9562 57.8922 24.9508 60.0001 20.94 60.0001ZM20.94 57.7897C22.1061 57.7897 22.9583 57.4565 23.4964 56.7902C24.0475 56.1111 24.323 55.0731 24.323 53.6764C24.323 52.1259 24.0475 51.0367 23.4964 50.4088C22.9583 49.7681 22.1061 49.4477 20.94 49.4477C19.774 49.4477 18.9154 49.7681 18.3644 50.4088C17.8262 51.0367 17.5571 52.1259 17.5571 53.6764C17.5571 55.0731 17.8262 56.1111 18.3644 56.7902C18.9154 57.4565 19.774 57.7897 20.94 57.7897Z" fill="white"/>
<path d="M5.56641 59.8081V47.4297H8.16126V57.8091H14.2543V59.8081H5.56641Z" fill="white"/>
</g>
<defs>
<clipPath id="clip0_17_466">
<rect width="60" height="60" fill="white"/>
</clipPath>
</defs>
</svg>
