<svg width="102" height="34" viewBox="0 0 102 34" fill="none" xmlns="http://www.w3.org/2000/svg">
<mask id="mask0_42_115" style="mask-type:alpha" maskUnits="userSpaceOnUse" x="0" y="0" width="38" height="34">
<path d="M0 14.2591C0 12.9823 0.643362 11.7915 1.71125 11.0918L16.6481 1.30355C17.9086 0.477572 19.5388 0.477573 20.7992 1.30355L35.7361 11.0918C36.804 11.7915 37.4474 12.9823 37.4474 14.2591V25.9454C37.4474 27.7169 36.2192 29.2516 34.4908 29.64L19.5539 32.9966C19.0072 33.1195 18.4401 33.1195 17.8934 32.9966L2.95655 29.64C1.22815 29.2516 0 27.7169 0 25.9454V14.2591Z" fill="#361010"/>
</mask>
<g mask="url(#mask0_42_115)">
<path d="M0 14.2591C0 12.9823 0.643362 11.7915 1.71125 11.0918L16.6481 1.30355C17.9086 0.477572 19.5388 0.477573 20.7992 1.30355L35.7361 11.0918C36.804 11.7915 37.4474 12.9823 37.4474 14.2591V25.9454C37.4474 27.7169 36.2192 29.2516 34.4908 29.64L19.5539 32.9966C19.0072 33.1195 18.4401 33.1195 17.8934 32.9966L2.95655 29.64C1.22815 29.2516 0 27.7169 0 25.9454V14.2591Z" fill="#361010"/>
<path d="M-14.7598 -5.82547H18.5875V43.8969H-14.7598V-5.82547Z" fill="#541719"/>
</g>
<path d="M95.5157 28.2238C94.5545 28.2238 93.6552 28.154 92.818 28.0145C91.9963 27.8749 91.2831 27.6734 90.6785 27.4098V24.6424C91.3607 24.9214 92.0971 25.1462 92.8878 25.3168C93.6785 25.4873 94.4537 25.5726 95.2134 25.5726C96.2987 25.5726 97.0971 25.4718 97.6087 25.2703C98.1204 25.0687 98.3762 24.6113 98.3762 23.8982C98.3762 23.4486 98.2677 23.092 98.0506 22.8284C97.8335 22.5648 97.4537 22.3323 96.9111 22.1307C96.3839 21.9137 95.632 21.6734 94.6552 21.4098C93.0893 20.9757 91.9886 20.433 91.3529 19.7819C90.7172 19.1307 90.3994 18.2315 90.3994 17.0842C90.3994 15.7043 90.9033 14.6423 91.911 13.8981C92.9188 13.1539 94.3839 12.7819 96.3064 12.7819C97.2056 12.7819 98.0428 12.8439 98.818 12.9679C99.5932 13.0919 100.221 13.2392 100.702 13.4098V16.1772C99.4304 15.6966 98.1049 15.4563 96.725 15.4563C95.7483 15.4563 94.9808 15.5648 94.4227 15.7819C93.8645 15.9834 93.5855 16.4175 93.5855 17.0842C93.5855 17.4718 93.6862 17.7819 93.8878 18.0144C94.0893 18.247 94.4304 18.4563 94.9111 18.6423C95.4072 18.8284 96.0971 19.0377 96.9808 19.2702C98.2056 19.5958 99.1514 19.9834 99.818 20.433C100.485 20.8827 100.942 21.3943 101.19 21.9679C101.454 22.5416 101.585 23.185 101.585 23.8982C101.585 25.2005 101.089 26.247 100.097 27.0377C99.1049 27.8284 97.5777 28.2238 95.5157 28.2238Z" fill="#0F0505"/>
<path d="M85.0732 27.9911V13.0144H88.2128V27.9911H85.0732Z" fill="#0F0505"/>
<path d="M70.1074 27.9911V13.0144H73.247V19.3632L79.0144 13.0144H82.6191L77.2005 19.0841L82.8982 27.9911H79.5493L75.247 21.0842L73.247 23.2469V27.9911H70.1074Z" fill="#0F0505"/>
<path d="M60.6375 28.2238C55.7848 28.2238 53.3584 25.6734 53.3584 20.5726C53.3584 17.8284 53.9708 15.8439 55.1956 14.6191C56.4204 13.3943 58.2344 12.7819 60.6375 12.7819C63.0406 12.7819 64.8546 13.3943 66.0794 14.6191C67.3042 15.8439 67.9166 17.8284 67.9166 20.5726C67.9166 25.6734 65.4902 28.2238 60.6375 28.2238ZM60.6375 25.5493C62.0483 25.5493 63.0794 25.1462 63.7305 24.34C64.3972 23.5183 64.7305 22.2625 64.7305 20.5726C64.7305 18.6966 64.3972 17.3788 63.7305 16.6191C63.0794 15.8439 62.0483 15.4563 60.6375 15.4563C59.2266 15.4563 58.1879 15.8439 57.5212 16.6191C56.87 17.3788 56.5445 18.6966 56.5445 20.5726C56.5445 22.2625 56.87 23.5183 57.5212 24.34C58.1879 25.1462 59.2266 25.5493 60.6375 25.5493Z" fill="#0F0505"/>
<path d="M42.0361 27.9911V13.0144H45.1757V25.5725H52.5478V27.9911H42.0361Z" fill="#0F0505"/>
</svg>
